<svg xmlns="http://www.w3.org/2000/svg" width="520" height="940" viewBox="0 0 520 940"><rect width="520" height="940" fill="#fff"/><line x1="285.50" y1="50.00" x2="322.81" y2="153.00" stroke="#000" stroke-width="1.15" stroke-linecap="round" stroke-dasharray="1.6 4.4"/>
<line x1="322.81" y1="153.00" x2="430.40" y2="174.80" stroke="#000" stroke-width="1.15" stroke-linecap="round" stroke-dasharray="1.6 4.4"/>
<line x1="322.81" y1="153.00" x2="316.14" y2="310.66" stroke="#000" stroke-width="1.15" stroke-linecap="round" stroke-dasharray="1.6 4.4"/>
<line x1="316.14" y1="310.66" x2="331.58" y2="416.36" stroke="#000" stroke-width="1.15" stroke-linecap="round" stroke-dasharray="1.6 4.4"/>
<line x1="331.58" y1="416.36" x2="353.28" y2="445.39" stroke="#000" stroke-width="1.15" stroke-linecap="round" stroke-dasharray="1.6 4.4"/>
<line x1="316.14" y1="310.66" x2="279.40" y2="422.06" stroke="#000" stroke-width="1.15" stroke-linecap="round" stroke-dasharray="1.6 4.4"/>
<line x1="196.14" y1="57.16" x2="203.83" y2="104.15" stroke="#000" stroke-width="1.15" stroke-linecap="round" stroke-dasharray="1.6 4.4"/>
<line x1="196.14" y1="57.16" x2="141.63" y2="102.94" stroke="#000" stroke-width="1.15" stroke-linecap="round" stroke-dasharray="1.6 4.4"/>
<line x1="203.83" y1="104.15" x2="169.43" y2="218.49" stroke="#000" stroke-width="1.15" stroke-linecap="round" stroke-dasharray="1.6 4.4"/>
<line x1="169.43" y1="218.49" x2="190.47" y2="292.39" stroke="#000" stroke-width="1.15" stroke-linecap="round" stroke-dasharray="1.6 4.4"/>
<line x1="190.47" y1="292.39" x2="196.14" y2="435.71" stroke="#000" stroke-width="1.15" stroke-linecap="round" stroke-dasharray="1.6 4.4"/>
<line x1="169.43" y1="218.49" x2="89.60" y2="289.74" stroke="#000" stroke-width="1.15" stroke-linecap="round" stroke-dasharray="1.6 4.4"/>
<line x1="89.60" y1="289.74" x2="120.96" y2="450.00" stroke="#000" stroke-width="1.15" stroke-linecap="round" stroke-dasharray="1.6 4.4"/>
<circle cx="285.50" cy="50.00" r="2.70" fill="#000"/>
<circle cx="196.14" cy="57.16" r="3.03" fill="#000"/>
<circle cx="196.14" cy="435.71" r="2.46" fill="#000"/>
<circle cx="169.43" cy="218.49" r="1.37" fill="#000"/>
<circle cx="316.14" cy="310.66" r="1.71" fill="#000"/>
<circle cx="190.47" cy="292.39" r="1.23" fill="#000"/>
<circle cx="331.58" cy="416.36" r="1.78" fill="#000"/>
<circle cx="353.28" cy="445.39" r="1.52" fill="#000"/>
<circle cx="141.63" cy="102.94" r="1.35" fill="#000"/>
<circle cx="89.60" cy="289.74" r="1.34" fill="#000"/>
<circle cx="430.40" cy="174.80" r="1.33" fill="#000"/>
<circle cx="322.81" cy="153.00" r="0.93" fill="#000"/>
<circle cx="245.25" cy="129.75" r="1.23" fill="#000"/>
<circle cx="203.83" cy="104.15" r="1.09" fill="#000"/>
<circle cx="279.40" cy="422.06" r="1.05" fill="#000"/>
<circle cx="120.96" cy="450.00" r="1.48" fill="#000"/>
<path d="M 201.50 238.00 C 195.73 258.46 193.01 279.54 194.68 300.00" fill="none" stroke="#000" stroke-width="1.3" stroke-linecap="round"/>
<path d="M 237.83 240.48 C 223.63 252.26 209.44 264.04 199.45 270.86" fill="none" stroke="#000" stroke-width="1.3" stroke-linecap="round"/>
<path d="M 201.50 269.00 C 214.40 276.44 228.16 287.60 239.32 300.00" fill="none" stroke="#000" stroke-width="1.3" stroke-linecap="round"/>
<path d="M 276.22 239.24 C 290.19 239.24 299.59 253.51 297.98 269.62 C 296.35 285.90 284.52 300.00 270.14 300.00 C 255.76 300.00 246.73 286.06 248.38 269.62 C 250.04 253.01 262.38 239.24 276.22 239.24 C 283.69 238.94 289.11 239.24 291.38 241.37" fill="none" stroke="#000" stroke-width="1.3" stroke-linecap="round"/>
<path d="M 264.0 800.0 Q 281.0 709.0 258.0 618.0" fill="none" stroke="#000" stroke-width="1.25" stroke-linecap="round"/>
<path d="M 258.0 618.0 Q 205.0 558.0 196.0 498.0" fill="none" stroke="#000" stroke-width="1.1" stroke-linecap="round"/>
<ellipse cx="196.00" cy="471.16" rx="9.68" ry="6.60" fill="none" stroke="#000" stroke-width="1.1" transform="rotate(-90.0 196.00 471.16)"/>
<ellipse cx="208.97" cy="480.59" rx="9.68" ry="6.60" fill="none" stroke="#000" stroke-width="1.1" transform="rotate(-18.0 208.97 480.59)"/>
<ellipse cx="204.02" cy="495.83" rx="9.68" ry="6.60" fill="none" stroke="#000" stroke-width="1.1" transform="rotate(54.0 204.02 495.83)"/>
<ellipse cx="187.98" cy="495.83" rx="9.68" ry="6.60" fill="none" stroke="#000" stroke-width="1.1" transform="rotate(126.0 187.98 495.83)"/>
<ellipse cx="183.03" cy="480.59" rx="9.68" ry="6.60" fill="none" stroke="#000" stroke-width="1.1" transform="rotate(198.0 183.03 480.59)"/>
<circle cx="196.00" cy="484.80" r="2.20" fill="#000"/>
<path d="M 258.0 618.0 Q 304.0 581.0 314.0 544.0" fill="none" stroke="#000" stroke-width="1.0625" stroke-linecap="round"/>
<ellipse cx="317.82" cy="522.71" rx="7.92" ry="5.40" fill="none" stroke="#000" stroke-width="1.0625" transform="rotate(-70.0 317.82 522.71)"/>
<ellipse cx="325.15" cy="533.59" rx="7.92" ry="5.40" fill="none" stroke="#000" stroke-width="1.0625" transform="rotate(2.0 325.15 533.59)"/>
<ellipse cx="317.08" cy="543.93" rx="7.92" ry="5.40" fill="none" stroke="#000" stroke-width="1.0625" transform="rotate(74.0 317.08 543.93)"/>
<ellipse cx="304.75" cy="539.44" rx="7.92" ry="5.40" fill="none" stroke="#000" stroke-width="1.0625" transform="rotate(146.0 304.75 539.44)"/>
<ellipse cx="305.21" cy="526.33" rx="7.92" ry="5.40" fill="none" stroke="#000" stroke-width="1.0625" transform="rotate(218.0 305.21 526.33)"/>
<circle cx="314.00" cy="533.20" r="1.80" fill="#000"/>
<path d="M 259.00 719.92 Q 247.16 698.57 223.05 702.39 Q 234.89 723.74 259.00 719.92 Z" fill="none" stroke="#000" stroke-width="1.0625"/>
<path d="M 267.00 658.04 Q 286.46 663.25 298.01 646.75 Q 278.55 641.54 267.00 658.04 Z" fill="none" stroke="#000" stroke-width="1.0625"/></svg>