<svg xmlns="http://www.w3.org/2000/svg" width="760" height="980" viewBox="0 0 760 980"><rect width="760" height="980" fill="#fff"/>
<line x1="428.45" y1="110.00" x2="499.33" y2="305.71" stroke="#000" stroke-width="1.3" stroke-linecap="round" stroke-dasharray="1.6 4.4"/>
<line x1="499.33" y1="305.71" x2="703.76" y2="347.12" stroke="#000" stroke-width="1.3" stroke-linecap="round" stroke-dasharray="1.6 4.4"/>
<line x1="499.33" y1="305.71" x2="486.66" y2="605.25" stroke="#000" stroke-width="1.3" stroke-linecap="round" stroke-dasharray="1.6 4.4"/>
<line x1="486.66" y1="605.25" x2="516.00" y2="806.08" stroke="#000" stroke-width="1.3" stroke-linecap="round" stroke-dasharray="1.6 4.4"/>
<line x1="516.00" y1="806.08" x2="557.24" y2="861.24" stroke="#000" stroke-width="1.3" stroke-linecap="round" stroke-dasharray="1.6 4.4"/>
<line x1="486.66" y1="605.25" x2="416.86" y2="816.91" stroke="#000" stroke-width="1.3" stroke-linecap="round" stroke-dasharray="1.6 4.4"/>
<line x1="258.67" y1="123.60" x2="273.27" y2="212.88" stroke="#000" stroke-width="1.3" stroke-linecap="round" stroke-dasharray="1.6 4.4"/>
<line x1="258.67" y1="123.60" x2="155.10" y2="210.58" stroke="#000" stroke-width="1.3" stroke-linecap="round" stroke-dasharray="1.6 4.4"/>
<line x1="273.27" y1="212.88" x2="207.91" y2="430.13" stroke="#000" stroke-width="1.3" stroke-linecap="round" stroke-dasharray="1.6 4.4"/>
<line x1="207.91" y1="430.13" x2="247.90" y2="570.54" stroke="#000" stroke-width="1.3" stroke-linecap="round" stroke-dasharray="1.6 4.4"/>
<line x1="247.90" y1="570.54" x2="258.67" y2="842.85" stroke="#000" stroke-width="1.3" stroke-linecap="round" stroke-dasharray="1.6 4.4"/>
<line x1="207.91" y1="430.13" x2="56.24" y2="565.50" stroke="#000" stroke-width="1.3" stroke-linecap="round" stroke-dasharray="1.6 4.4"/>
<line x1="56.24" y1="565.50" x2="115.83" y2="870.00" stroke="#000" stroke-width="1.3" stroke-linecap="round" stroke-dasharray="1.6 4.4"/>
<circle cx="428.45" cy="110.00" r="3.05" fill="#000"/>
<circle cx="258.67" cy="123.60" r="3.42" fill="#000"/>
<circle cx="258.67" cy="842.85" r="2.78" fill="#000"/>
<path d="M 207.91 422.38 Q 208.80 429.24 215.66 430.13 Q 208.80 431.02 207.91 437.88 Q 207.02 431.02 200.16 430.13 Q 207.02 429.24 207.91 422.38 Z" fill="#000" stroke="none"/>
<path d="M 486.66 595.61 Q 487.77 604.14 496.30 605.25 Q 487.77 606.36 486.66 614.89 Q 485.56 606.36 477.03 605.25 Q 485.56 604.14 486.66 595.61 Z" fill="#000" stroke="none"/>
<circle cx="247.90" cy="570.54" r="1.39" fill="#000"/>
<circle cx="516.00" cy="806.08" r="2.01" fill="#000"/>
<circle cx="557.24" cy="861.24" r="1.72" fill="#000"/>
<circle cx="155.10" cy="210.58" r="1.52" fill="#000"/>
<circle cx="56.24" cy="565.50" r="1.52" fill="#000"/>
<circle cx="703.76" cy="347.12" r="1.51" fill="#000"/>
<circle cx="499.33" cy="305.71" r="1.05" fill="#000"/>
<circle cx="351.97" cy="261.53" r="1.39" fill="#000"/>
<circle cx="273.27" cy="212.88" r="1.23" fill="#000"/>
<circle cx="416.86" cy="816.91" r="1.18" fill="#000"/>
<circle cx="115.83" cy="870.00" r="1.67" fill="#000"/>
<path d="M 416.88 104.28 Q 394.41 95.73 372.22 90.71" fill="none" stroke="#000" stroke-width="1.55" stroke-linecap="round"/>
<circle cx="340.96" cy="89.67" r="2.40" fill="#000"/>
<path d="M 310.69 95.73 Q 289.58 104.29 268.77 116.38" fill="none" stroke="#000" stroke-width="1.55" stroke-linecap="round"/>
<path d="M 290.06 856.29 Q 317.94 865.86 345.96 873.28" fill="none" stroke="#000" stroke-width="1.55" stroke-linecap="round"/>
<path d="M 377.07 878.97 Q 406.49 881.92 436.05 882.55" fill="none" stroke="#000" stroke-width="1.55" stroke-linecap="round"/>
<path d="M 467.63 880.65 Q 496.35 876.67 525.20 870.53" fill="none" stroke="#000" stroke-width="1.55" stroke-linecap="round"/>
<path d="M 386.0 808.0 Q 387.0 713.0 344.0 618.0" fill="none" stroke="#000" stroke-width="1.2" stroke-linecap="round"/>
<ellipse cx="344.00" cy="594.60" rx="8.80" ry="6.00" fill="none" stroke="#000" stroke-width="1.1" transform="rotate(-90.0 344.00 594.60)"/>
<ellipse cx="355.79" cy="603.17" rx="8.80" ry="6.00" fill="none" stroke="#000" stroke-width="1.1" transform="rotate(-18.0 355.79 603.17)"/>
<ellipse cx="351.29" cy="617.03" rx="8.80" ry="6.00" fill="none" stroke="#000" stroke-width="1.1" transform="rotate(54.0 351.29 617.03)"/>
<ellipse cx="336.71" cy="617.03" rx="8.80" ry="6.00" fill="none" stroke="#000" stroke-width="1.1" transform="rotate(126.0 336.71 617.03)"/>
<ellipse cx="332.21" cy="603.17" rx="8.80" ry="6.00" fill="none" stroke="#000" stroke-width="1.1" transform="rotate(198.0 332.21 603.17)"/>
<circle cx="344.00" cy="607.00" r="2.00" fill="#000"/>
<path d="M 381.00 728.00 Q 369.05 708.12 346.29 712.54 Q 358.23 732.42 381.00 728.00 Z" fill="none" stroke="#000" stroke-width="1.05"/></svg>